<svg width="13" height="13" viewBox="0 0 13 13" fill="none" xmlns="http://www.w3.org/2000/svg">
<g clip-path="url(#clip0_279_1144)">
<path d="M6.98953 0.514648C3.65765 0.514648 0.992188 3.0552 0.992188 6.26213C0.992188 9.51071 3.65765 12.0929 6.98953 12.0929C10.3631 12.0929 12.9453 9.55236 12.9453 6.26213C12.9453 3.0552 10.3631 0.514648 6.98953 0.514648ZM7.03122 10.8434C4.40736 10.8434 2.49152 8.80269 2.49152 6.26213C2.49152 3.72158 4.40732 1.6808 6.98953 1.6808C9.57173 1.6808 11.446 3.76323 11.446 6.30378C11.446 8.80269 9.57177 10.8434 7.03122 10.8434ZM8.36395 6.42873V6.34543C9.07197 6.13719 9.57176 5.6374 9.57176 5.01268C9.57176 4.47125 9.32186 4.01311 8.98867 3.76322C8.57219 3.51333 8.07239 3.34674 6.98953 3.34674C6.03161 3.34674 5.28198 3.43005 4.74055 3.51334V9.26082H6.07328V6.97016H6.69801C7.44768 6.97016 7.78088 7.2617 7.90582 7.88643C8.07242 8.55281 8.19735 9.09423 8.36395 9.30248H9.82164C9.6967 9.09423 9.57175 8.76105 9.40516 7.88643C9.23856 7.05346 8.90537 6.63698 8.36395 6.42873ZM6.73965 6.01225H6.11492V4.38795C6.23986 4.3463 6.48977 4.30466 6.86461 4.30466C7.69758 4.30466 8.11406 4.63785 8.11406 5.17928C8.11406 5.76236 7.48932 6.01225 6.73965 6.01225Z" fill="#9F89F7"/>
</g>
<defs>
<clipPath id="clip0_279_1144">
<rect width="13" height="13" fill="white"/>
</clipPath>
</defs>
</svg>
