<svg width="120" height="41" viewBox="0 0 120 41" fill="none" xmlns="http://www.w3.org/2000/svg">
<g clip-path="url(#clip0_279_1139)">
<path d="M60.3841 0C27.6068 0 0.910156 9.03771 0.910156 20.1995C0.910156 31.3196 27.5652 40.399 60.3841 40.399C93.1615 40.399 119.858 31.3613 119.858 20.1995C119.858 9.03771 93.2031 0 60.3841 0ZM118.775 20.1578C118.775 30.6949 92.5784 39.2745 60.3841 39.2745C28.1899 39.2745 1.99303 30.6949 1.99303 20.1578C1.99303 9.62079 28.1899 1.04121 60.3841 1.04121C92.5784 1.04121 118.775 9.62079 118.775 20.1578Z" fill="#9F89F7"/>
<mask id="path-2-outside-1_279_1139" maskUnits="userSpaceOnUse" x="13.873" y="13.8809" width="92" height="14" fill="black">
<rect fill="white" x="13.873" y="13.8809" width="92" height="14"/>
<path d="M19.7105 14.8809L18.2543 23.6522H15.873L17.3292 14.8809H19.7105ZM22.4151 19.9518L21.7984 23.6522H19.4342L20.5307 17.0737H22.7749L22.5693 18.3243H22.6378C22.8463 17.9046 23.1503 17.5776 23.5501 17.3435C23.9527 17.1065 24.3966 16.988 24.882 16.988C25.3474 16.988 25.7343 17.0937 26.0427 17.305C26.3511 17.5162 26.5695 17.8075 26.698 18.1787C26.8265 18.5498 26.8493 18.9753 26.7665 19.455L26.0641 23.6522H23.7L24.3167 19.9518C24.3709 19.6263 24.331 19.3707 24.1968 19.1851C24.0654 18.9995 23.8484 18.9067 23.5458 18.9067C23.3545 18.9067 23.1789 18.9496 23.019 19.0352C22.862 19.118 22.7306 19.238 22.625 19.395C22.5222 19.5492 22.4522 19.7348 22.4151 19.9518ZM30.2121 19.9518L29.5953 23.6522H27.2312L28.3276 17.0737H30.5718L30.3662 18.3243H30.4348C30.6432 17.9046 30.9473 17.5776 31.347 17.3435C31.7496 17.1065 32.1936 16.988 32.679 16.988C33.1444 16.988 33.5313 17.0937 33.8396 17.305C34.148 17.5162 34.3664 17.8075 34.4949 18.1787C34.6234 18.5498 34.6462 18.9753 34.5634 19.455L33.861 23.6522H31.4969L32.1136 19.9518C32.1679 19.6263 32.1279 19.3707 31.9937 19.1851C31.8624 18.9995 31.6454 18.9067 31.3427 18.9067C31.1514 18.9067 30.9758 18.9496 30.8159 19.0352C30.6589 19.118 30.5276 19.238 30.4219 19.395C30.3191 19.5492 30.2492 19.7348 30.2121 19.9518ZM38.146 23.7721C37.4437 23.7721 36.8612 23.6379 36.3986 23.3695C35.9361 23.0982 35.6106 22.7099 35.4221 22.2045C35.2337 21.6963 35.1994 21.0881 35.3194 20.38C35.4336 19.7005 35.6691 19.1066 36.026 18.5984C36.3858 18.0901 36.8383 17.6947 37.3837 17.412C37.9319 17.1294 38.5458 16.988 39.2253 16.988C39.7221 16.988 40.1576 17.0651 40.5316 17.2193C40.9085 17.3735 41.2154 17.5976 41.4524 17.8917C41.6894 18.1858 41.8493 18.5413 41.9321 18.9581C42.0177 19.3721 42.0177 19.8404 41.9321 20.3629L41.8464 20.9111H35.9704L36.1759 19.6091H39.8763C39.9049 19.4207 39.8863 19.2551 39.8206 19.1123C39.7578 18.9667 39.6565 18.8539 39.5166 18.774C39.3795 18.6912 39.2139 18.6498 39.0197 18.6498C38.8256 18.6498 38.6429 18.6912 38.4715 18.774C38.3031 18.8568 38.1589 18.9724 38.039 19.1209C37.9219 19.2694 37.8434 19.4435 37.8034 19.6434L37.5464 21.0139C37.5122 21.2252 37.525 21.4136 37.585 21.5792C37.6449 21.7449 37.7492 21.8748 37.8976 21.969C38.0461 22.0632 38.2374 22.1103 38.4715 22.1103C38.6314 22.1103 38.7828 22.0889 38.9255 22.0461C39.0711 22.0004 39.1996 21.9347 39.311 21.8491C39.4252 21.7606 39.5166 21.6535 39.5851 21.5279H41.7436C41.5895 21.9847 41.3453 22.3816 41.0113 22.7185C40.6801 23.0526 40.2718 23.3124 39.7864 23.498C39.3038 23.6807 38.7571 23.7721 38.146 23.7721ZM42.3486 23.6522L43.445 17.0737H45.7406L45.535 18.3243H45.6036C45.8006 17.8617 46.0476 17.5234 46.3445 17.3092C46.6414 17.0951 46.9655 16.988 47.3167 16.988C47.4195 16.988 47.518 16.9966 47.6122 17.0137C47.7093 17.028 47.805 17.048 47.8992 17.0737L47.5566 19.0952C47.4452 19.0524 47.3067 19.0224 47.1411 19.0053C46.9755 18.9853 46.8285 18.9753 46.7 18.9753C46.4716 18.9753 46.2574 19.0281 46.0576 19.1337C45.8605 19.2365 45.6921 19.3821 45.5522 19.5706C45.4151 19.7562 45.3238 19.9746 45.2781 20.2259L44.7127 23.6522H42.3486Z"/>
<path d="M48.9058 23.6522H46.3361L50.6874 14.8809H53.9424L55.3815 23.6522H52.8117L51.9552 17.2964H51.8866L48.9058 23.6522ZM49.0086 20.1916H53.8396L53.5313 21.9733H48.7002L49.0086 20.1916ZM58.8945 23.7721C58.1807 23.7721 57.5925 23.6307 57.1299 23.3481C56.6674 23.0625 56.3433 22.6657 56.1577 22.1574C55.9721 21.6463 55.9364 21.0539 56.0506 20.38C56.1591 19.7062 56.3904 19.1152 56.7445 18.6069C57.1014 18.0959 57.5582 17.699 58.115 17.4163C58.6746 17.1308 59.3113 16.988 60.0251 16.988C60.6704 16.988 61.2086 17.1051 61.6398 17.3392C62.0738 17.5705 62.3836 17.8988 62.5692 18.3243C62.7576 18.7469 62.8061 19.2437 62.7148 19.8147H60.5219C60.5476 19.4721 60.492 19.2094 60.3549 19.0267C60.2207 18.8439 60.0251 18.7526 59.7682 18.7526C59.5569 18.7526 59.3627 18.8125 59.1857 18.9324C59.0115 19.0495 58.8616 19.228 58.736 19.4678C58.6132 19.7048 58.5233 20.0032 58.4662 20.3629C58.4091 20.7227 58.4019 21.0225 58.4448 21.2623C58.4904 21.4993 58.579 21.6778 58.7103 21.7977C58.8445 21.9147 59.0144 21.9733 59.22 21.9733C59.397 21.9733 59.5597 21.9333 59.7082 21.8534C59.8595 21.7705 59.9894 21.6506 60.0979 21.4936C60.2093 21.3337 60.2935 21.1395 60.3506 20.9111H62.5435C62.435 21.4936 62.2165 21.999 61.8882 22.4273C61.5598 22.8555 61.1415 23.1867 60.6333 23.4209C60.1251 23.655 59.5455 23.7721 58.8945 23.7721ZM64.8723 23.7549C64.4554 23.7549 64.0971 23.6864 63.7973 23.5494C63.5003 23.4095 63.2833 23.1982 63.1463 22.9155C63.0121 22.63 62.9821 22.2702 63.0563 21.8362C63.1163 21.4765 63.2291 21.1695 63.3947 20.9154C63.5603 20.6613 63.7659 20.4529 64.0114 20.2901C64.257 20.1274 64.5325 20.0032 64.838 19.9175C65.1464 19.829 65.4719 19.7719 65.8145 19.7462C66.1857 19.7176 66.4869 19.6819 66.7182 19.6391C66.9494 19.5963 67.1222 19.5378 67.2364 19.4635C67.3506 19.3893 67.4191 19.2893 67.442 19.1637V19.1466C67.4677 18.9753 67.422 18.8439 67.3049 18.7526C67.1907 18.6612 67.0308 18.6155 66.8252 18.6155C66.6025 18.6155 66.4098 18.664 66.2471 18.7611C66.0872 18.8582 65.9772 19.0095 65.9173 19.2151H63.7416C63.833 18.8154 64.02 18.4471 64.3026 18.1101C64.5882 17.7704 64.9665 17.4991 65.4376 17.2964C65.9116 17.0908 66.4769 16.988 67.1336 16.988C67.6019 16.988 68.013 17.0437 68.3671 17.1551C68.7211 17.2636 69.0138 17.4163 69.2451 17.6133C69.4792 17.8075 69.6434 18.0359 69.7376 18.2986C69.8347 18.5584 69.8575 18.8411 69.8061 19.1466L69.0523 23.6522H66.8424L66.9966 22.7271H66.9452C66.7738 22.9726 66.5811 23.171 66.367 23.3224C66.1557 23.4737 65.9244 23.5836 65.6732 23.6522C65.4248 23.7207 65.1578 23.7549 64.8723 23.7549ZM65.9001 22.2645C66.0772 22.2645 66.2513 22.2274 66.4227 22.1532C66.594 22.0789 66.741 21.9718 66.8638 21.8319C66.9866 21.692 67.0651 21.5221 67.0993 21.3223L67.185 20.7741C67.1222 20.7998 67.0522 20.824 66.9751 20.8469C66.9009 20.8669 66.8224 20.8869 66.7396 20.9068C66.6596 20.9268 66.574 20.9454 66.4826 20.9625C66.3941 20.9796 66.3027 20.9968 66.2085 21.0139C66.0201 21.0425 65.8616 21.0896 65.7331 21.1552C65.6046 21.2181 65.5047 21.2966 65.4333 21.3908C65.3619 21.4822 65.3177 21.585 65.3005 21.6992C65.2749 21.879 65.3163 22.019 65.4248 22.1189C65.5361 22.216 65.6946 22.2645 65.9001 22.2645ZM72.5546 23.7378C72.0864 23.7378 71.6752 23.615 71.3212 23.3695C70.97 23.1239 70.7173 22.7513 70.5631 22.2517C70.4118 21.752 70.3989 21.1224 70.5246 20.3629C70.6559 19.5692 70.8858 18.9239 71.2141 18.4271C71.5453 17.9303 71.9251 17.5662 72.3533 17.3349C72.7845 17.1037 73.2171 16.988 73.651 16.988C73.9765 16.988 74.2521 17.0451 74.4776 17.1593C74.7061 17.2707 74.8874 17.4206 75.0216 17.609C75.1558 17.7946 75.2471 17.9988 75.2957 18.2215H75.3299L75.8867 14.8809H78.2508L76.7947 23.6522H74.4477L74.6275 22.5729H74.5761C74.4477 22.7956 74.2835 22.9954 74.0836 23.1725C73.8866 23.3466 73.6596 23.4851 73.4026 23.5879C73.1457 23.6878 72.863 23.7378 72.5546 23.7378ZM73.7281 21.9219C73.9451 21.9219 74.1421 21.8591 74.3192 21.7334C74.4962 21.6049 74.6461 21.4251 74.7689 21.1938C74.8917 20.9597 74.9787 20.6827 75.0301 20.3629C75.0844 20.0374 75.0887 19.759 75.043 19.5278C74.9973 19.2936 74.9059 19.1152 74.7689 18.9924C74.6347 18.8668 74.4591 18.804 74.2421 18.804C74.0251 18.804 73.8295 18.8668 73.6553 18.9924C73.4812 19.1152 73.3341 19.2936 73.2142 19.5278C73.0971 19.759 73.0115 20.0374 72.9572 20.3629C72.903 20.6884 72.8958 20.9682 72.9358 21.2024C72.9786 21.4336 73.0672 21.6121 73.2013 21.7377C73.3355 21.8605 73.5111 21.9219 73.7281 21.9219ZM81.0904 23.7721C80.388 23.7721 79.8055 23.6379 79.343 23.3695C78.8804 23.0982 78.5549 22.7099 78.3665 22.2045C78.178 21.6963 78.1438 21.0881 78.2637 20.38C78.3779 19.7005 78.6135 19.1066 78.9704 18.5984C79.3301 18.0901 79.7827 17.6947 80.328 17.412C80.8762 17.1294 81.4901 16.988 82.1697 16.988C82.6665 16.988 83.1019 17.0651 83.4759 17.2193C83.8528 17.3735 84.1598 17.5976 84.3967 17.8917C84.6337 18.1858 84.7936 18.5413 84.8764 18.9581C84.9621 19.3721 84.9621 19.8404 84.8764 20.3629L84.7908 20.9111H78.9147L79.1203 19.6091H82.8206C82.8492 19.4207 82.8306 19.2551 82.765 19.1123C82.7022 18.9667 82.6008 18.8539 82.4609 18.774C82.3238 18.6912 82.1582 18.6498 81.9641 18.6498C81.7699 18.6498 81.5872 18.6912 81.4159 18.774C81.2474 18.8568 81.1032 18.9724 80.9833 19.1209C80.8662 19.2694 80.7877 19.4435 80.7477 19.6434L80.4908 21.0139C80.4565 21.2252 80.4694 21.4136 80.5293 21.5792C80.5893 21.7449 80.6935 21.8748 80.842 21.969C80.9904 22.0632 81.1817 22.1103 81.4159 22.1103C81.5758 22.1103 81.7271 22.0889 81.8699 22.0461C82.0155 22.0004 82.144 21.9347 82.2553 21.8491C82.3695 21.7606 82.4609 21.6535 82.5294 21.5279H84.688C84.5338 21.9847 84.2897 22.3816 83.9556 22.7185C83.6244 23.0526 83.2161 23.3124 82.7307 23.498C82.2482 23.6807 81.7014 23.7721 81.0904 23.7721ZM85.3101 23.6522L86.4065 17.0737H88.6507L88.4451 18.3243H88.5136C88.7164 17.9131 89.0033 17.5876 89.3745 17.3478C89.7457 17.1079 90.1611 16.988 90.6208 16.988C91.0805 16.988 91.4574 17.1108 91.7515 17.3564C92.0456 17.599 92.194 17.9217 92.1969 18.3243H92.2654C92.4424 17.9217 92.7322 17.599 93.1348 17.3564C93.5374 17.1108 93.9843 16.988 94.4754 16.988C95.1007 16.988 95.5761 17.1907 95.9016 17.5962C96.2299 18.0016 96.337 18.5413 96.2228 19.2151L95.4861 23.6522H93.122L93.773 19.8147C93.813 19.5263 93.773 19.3008 93.6531 19.138C93.5331 18.9724 93.3504 18.8896 93.1049 18.8896C92.8622 18.8896 92.6566 18.9724 92.4881 19.138C92.3225 19.3008 92.2197 19.5263 92.1798 19.8147L91.5288 23.6522H89.2674L89.9184 19.8147C89.9584 19.5263 89.9184 19.3008 89.7985 19.138C89.6786 18.9724 89.4958 18.8896 89.2503 18.8896C89.0904 18.8896 88.9448 18.9267 88.8134 19.001C88.6849 19.0752 88.5779 19.1823 88.4922 19.3222C88.4094 19.4592 88.3537 19.6234 88.3252 19.8147L87.6742 23.6522H85.3101ZM97.4359 26.1191C97.1618 26.1191 96.9063 26.0977 96.6693 26.0548C96.4323 26.0149 96.2253 25.9592 96.0482 25.8878L96.8449 24.2089C97.0276 24.2774 97.1961 24.3217 97.3502 24.3417C97.5073 24.3617 97.6458 24.3503 97.7657 24.3074C97.8856 24.2646 97.9841 24.1832 98.0612 24.0633L98.1383 23.9434L96.9648 17.0737H99.346L99.6459 21.6306H99.7144L101.556 17.0737H104.126L100.545 24.2004C100.363 24.563 100.134 24.8885 99.86 25.1768C99.5887 25.4681 99.2547 25.6979 98.8578 25.8664C98.4609 26.0348 97.987 26.1191 97.4359 26.1191Z"/>
</mask>
<path d="M19.7105 14.8809L18.2543 23.6522H15.873L17.3292 14.8809H19.7105ZM22.4151 19.9518L21.7984 23.6522H19.4342L20.5307 17.0737H22.7749L22.5693 18.3243H22.6378C22.8463 17.9046 23.1503 17.5776 23.5501 17.3435C23.9527 17.1065 24.3966 16.988 24.882 16.988C25.3474 16.988 25.7343 17.0937 26.0427 17.305C26.3511 17.5162 26.5695 17.8075 26.698 18.1787C26.8265 18.5498 26.8493 18.9753 26.7665 19.455L26.0641 23.6522H23.7L24.3167 19.9518C24.3709 19.6263 24.331 19.3707 24.1968 19.1851C24.0654 18.9995 23.8484 18.9067 23.5458 18.9067C23.3545 18.9067 23.1789 18.9496 23.019 19.0352C22.862 19.118 22.7306 19.238 22.625 19.395C22.5222 19.5492 22.4522 19.7348 22.4151 19.9518ZM30.2121 19.9518L29.5953 23.6522H27.2312L28.3276 17.0737H30.5718L30.3662 18.3243H30.4348C30.6432 17.9046 30.9473 17.5776 31.347 17.3435C31.7496 17.1065 32.1936 16.988 32.679 16.988C33.1444 16.988 33.5313 17.0937 33.8396 17.305C34.148 17.5162 34.3664 17.8075 34.4949 18.1787C34.6234 18.5498 34.6462 18.9753 34.5634 19.455L33.861 23.6522H31.4969L32.1136 19.9518C32.1679 19.6263 32.1279 19.3707 31.9937 19.1851C31.8624 18.9995 31.6454 18.9067 31.3427 18.9067C31.1514 18.9067 30.9758 18.9496 30.8159 19.0352C30.6589 19.118 30.5276 19.238 30.4219 19.395C30.3191 19.5492 30.2492 19.7348 30.2121 19.9518ZM38.146 23.7721C37.4437 23.7721 36.8612 23.6379 36.3986 23.3695C35.9361 23.0982 35.6106 22.7099 35.4221 22.2045C35.2337 21.6963 35.1994 21.0881 35.3194 20.38C35.4336 19.7005 35.6691 19.1066 36.026 18.5984C36.3858 18.0901 36.8383 17.6947 37.3837 17.412C37.9319 17.1294 38.5458 16.988 39.2253 16.988C39.7221 16.988 40.1576 17.0651 40.5316 17.2193C40.9085 17.3735 41.2154 17.5976 41.4524 17.8917C41.6894 18.1858 41.8493 18.5413 41.9321 18.9581C42.0177 19.3721 42.0177 19.8404 41.9321 20.3629L41.8464 20.9111H35.9704L36.1759 19.6091H39.8763C39.9049 19.4207 39.8863 19.2551 39.8206 19.1123C39.7578 18.9667 39.6565 18.8539 39.5166 18.774C39.3795 18.6912 39.2139 18.6498 39.0197 18.6498C38.8256 18.6498 38.6429 18.6912 38.4715 18.774C38.3031 18.8568 38.1589 18.9724 38.039 19.1209C37.9219 19.2694 37.8434 19.4435 37.8034 19.6434L37.5464 21.0139C37.5122 21.2252 37.525 21.4136 37.585 21.5792C37.6449 21.7449 37.7492 21.8748 37.8976 21.969C38.0461 22.0632 38.2374 22.1103 38.4715 22.1103C38.6314 22.1103 38.7828 22.0889 38.9255 22.0461C39.0711 22.0004 39.1996 21.9347 39.311 21.8491C39.4252 21.7606 39.5166 21.6535 39.5851 21.5279H41.7436C41.5895 21.9847 41.3453 22.3816 41.0113 22.7185C40.6801 23.0526 40.2718 23.3124 39.7864 23.498C39.3038 23.6807 38.7571 23.7721 38.146 23.7721ZM42.3486 23.6522L43.445 17.0737H45.7406L45.535 18.3243H45.6036C45.8006 17.8617 46.0476 17.5234 46.3445 17.3092C46.6414 17.0951 46.9655 16.988 47.3167 16.988C47.4195 16.988 47.518 16.9966 47.6122 17.0137C47.7093 17.028 47.805 17.048 47.8992 17.0737L47.5566 19.0952C47.4452 19.0524 47.3067 19.0224 47.1411 19.0053C46.9755 18.9853 46.8285 18.9753 46.7 18.9753C46.4716 18.9753 46.2574 19.0281 46.0576 19.1337C45.8605 19.2365 45.6921 19.3821 45.5522 19.5706C45.4151 19.7562 45.3238 19.9746 45.2781 20.2259L44.7127 23.6522H42.3486Z" stroke="#9F89F7" stroke-width="2" mask="url(#path-2-outside-1_279_1139)"/>
<path d="M48.9058 23.6522H46.3361L50.6874 14.8809H53.9424L55.3815 23.6522H52.8117L51.9552 17.2964H51.8866L48.9058 23.6522ZM49.0086 20.1916H53.8396L53.5313 21.9733H48.7002L49.0086 20.1916ZM58.8945 23.7721C58.1807 23.7721 57.5925 23.6307 57.1299 23.3481C56.6674 23.0625 56.3433 22.6657 56.1577 22.1574C55.9721 21.6463 55.9364 21.0539 56.0506 20.38C56.1591 19.7062 56.3904 19.1152 56.7445 18.6069C57.1014 18.0959 57.5582 17.699 58.115 17.4163C58.6746 17.1308 59.3113 16.988 60.0251 16.988C60.6704 16.988 61.2086 17.1051 61.6398 17.3392C62.0738 17.5705 62.3836 17.8988 62.5692 18.3243C62.7576 18.7469 62.8061 19.2437 62.7148 19.8147H60.5219C60.5476 19.4721 60.492 19.2094 60.3549 19.0267C60.2207 18.8439 60.0251 18.7526 59.7682 18.7526C59.5569 18.7526 59.3627 18.8125 59.1857 18.9324C59.0115 19.0495 58.8616 19.228 58.736 19.4678C58.6132 19.7048 58.5233 20.0032 58.4662 20.3629C58.4091 20.7227 58.4019 21.0225 58.4448 21.2623C58.4904 21.4993 58.579 21.6778 58.7103 21.7977C58.8445 21.9147 59.0144 21.9733 59.22 21.9733C59.397 21.9733 59.5597 21.9333 59.7082 21.8534C59.8595 21.7705 59.9894 21.6506 60.0979 21.4936C60.2093 21.3337 60.2935 21.1395 60.3506 20.9111H62.5435C62.435 21.4936 62.2165 21.999 61.8882 22.4273C61.5598 22.8555 61.1415 23.1867 60.6333 23.4209C60.1251 23.655 59.5455 23.7721 58.8945 23.7721ZM64.8723 23.7549C64.4554 23.7549 64.0971 23.6864 63.7973 23.5494C63.5003 23.4095 63.2833 23.1982 63.1463 22.9155C63.0121 22.63 62.9821 22.2702 63.0563 21.8362C63.1163 21.4765 63.2291 21.1695 63.3947 20.9154C63.5603 20.6613 63.7659 20.4529 64.0114 20.2901C64.257 20.1274 64.5325 20.0032 64.838 19.9175C65.1464 19.829 65.4719 19.7719 65.8145 19.7462C66.1857 19.7176 66.4869 19.6819 66.7182 19.6391C66.9494 19.5963 67.1222 19.5378 67.2364 19.4635C67.3506 19.3893 67.4191 19.2893 67.442 19.1637V19.1466C67.4677 18.9753 67.422 18.8439 67.3049 18.7526C67.1907 18.6612 67.0308 18.6155 66.8252 18.6155C66.6025 18.6155 66.4098 18.664 66.2471 18.7611C66.0872 18.8582 65.9772 19.0095 65.9173 19.2151H63.7416C63.833 18.8154 64.02 18.4471 64.3026 18.1101C64.5882 17.7704 64.9665 17.4991 65.4376 17.2964C65.9116 17.0908 66.4769 16.988 67.1336 16.988C67.6019 16.988 68.013 17.0437 68.3671 17.1551C68.7211 17.2636 69.0138 17.4163 69.2451 17.6133C69.4792 17.8075 69.6434 18.0359 69.7376 18.2986C69.8347 18.5584 69.8575 18.8411 69.8061 19.1466L69.0523 23.6522H66.8424L66.9966 22.7271H66.9452C66.7738 22.9726 66.5811 23.171 66.367 23.3224C66.1557 23.4737 65.9244 23.5836 65.6732 23.6522C65.4248 23.7207 65.1578 23.7549 64.8723 23.7549ZM65.9001 22.2645C66.0772 22.2645 66.2513 22.2274 66.4227 22.1532C66.594 22.0789 66.741 21.9718 66.8638 21.8319C66.9866 21.692 67.0651 21.5221 67.0993 21.3223L67.185 20.7741C67.1222 20.7998 67.0522 20.824 66.9751 20.8469C66.9009 20.8669 66.8224 20.8869 66.7396 20.9068C66.6596 20.9268 66.574 20.9454 66.4826 20.9625C66.3941 20.9796 66.3027 20.9968 66.2085 21.0139C66.0201 21.0425 65.8616 21.0896 65.7331 21.1552C65.6046 21.2181 65.5047 21.2966 65.4333 21.3908C65.3619 21.4822 65.3177 21.585 65.3005 21.6992C65.2749 21.879 65.3163 22.019 65.4248 22.1189C65.5361 22.216 65.6946 22.2645 65.9001 22.2645ZM72.5546 23.7378C72.0864 23.7378 71.6752 23.615 71.3212 23.3695C70.97 23.1239 70.7173 22.7513 70.5631 22.2517C70.4118 21.752 70.3989 21.1224 70.5246 20.3629C70.6559 19.5692 70.8858 18.9239 71.2141 18.4271C71.5453 17.9303 71.9251 17.5662 72.3533 17.3349C72.7845 17.1037 73.2171 16.988 73.651 16.988C73.9765 16.988 74.2521 17.0451 74.4776 17.1593C74.7061 17.2707 74.8874 17.4206 75.0216 17.609C75.1558 17.7946 75.2471 17.9988 75.2957 18.2215H75.3299L75.8867 14.8809H78.2508L76.7947 23.6522H74.4477L74.6275 22.5729H74.5761C74.4477 22.7956 74.2835 22.9954 74.0836 23.1725C73.8866 23.3466 73.6596 23.4851 73.4026 23.5879C73.1457 23.6878 72.863 23.7378 72.5546 23.7378ZM73.7281 21.9219C73.9451 21.9219 74.1421 21.8591 74.3192 21.7334C74.4962 21.6049 74.6461 21.4251 74.7689 21.1938C74.8917 20.9597 74.9787 20.6827 75.0301 20.3629C75.0844 20.0374 75.0887 19.759 75.043 19.5278C74.9973 19.2936 74.9059 19.1152 74.7689 18.9924C74.6347 18.8668 74.4591 18.804 74.2421 18.804C74.0251 18.804 73.8295 18.8668 73.6553 18.9924C73.4812 19.1152 73.3341 19.2936 73.2142 19.5278C73.0971 19.759 73.0115 20.0374 72.9572 20.3629C72.903 20.6884 72.8958 20.9682 72.9358 21.2024C72.9786 21.4336 73.0672 21.6121 73.2013 21.7377C73.3355 21.8605 73.5111 21.9219 73.7281 21.9219ZM81.0904 23.7721C80.388 23.7721 79.8055 23.6379 79.343 23.3695C78.8804 23.0982 78.5549 22.7099 78.3665 22.2045C78.178 21.6963 78.1438 21.0881 78.2637 20.38C78.3779 19.7005 78.6135 19.1066 78.9704 18.5984C79.3301 18.0901 79.7827 17.6947 80.328 17.412C80.8762 17.1294 81.4901 16.988 82.1697 16.988C82.6665 16.988 83.1019 17.0651 83.4759 17.2193C83.8528 17.3735 84.1598 17.5976 84.3967 17.8917C84.6337 18.1858 84.7936 18.5413 84.8764 18.9581C84.9621 19.3721 84.9621 19.8404 84.8764 20.3629L84.7908 20.9111H78.9147L79.1203 19.6091H82.8206C82.8492 19.4207 82.8306 19.2551 82.765 19.1123C82.7022 18.9667 82.6008 18.8539 82.4609 18.774C82.3238 18.6912 82.1582 18.6498 81.9641 18.6498C81.7699 18.6498 81.5872 18.6912 81.4159 18.774C81.2474 18.8568 81.1032 18.9724 80.9833 19.1209C80.8662 19.2694 80.7877 19.4435 80.7477 19.6434L80.4908 21.0139C80.4565 21.2252 80.4694 21.4136 80.5293 21.5792C80.5893 21.7449 80.6935 21.8748 80.842 21.969C80.9904 22.0632 81.1817 22.1103 81.4159 22.1103C81.5758 22.1103 81.7271 22.0889 81.8699 22.0461C82.0155 22.0004 82.144 21.9347 82.2553 21.8491C82.3695 21.7606 82.4609 21.6535 82.5294 21.5279H84.688C84.5338 21.9847 84.2897 22.3816 83.9556 22.7185C83.6244 23.0526 83.2161 23.3124 82.7307 23.498C82.2482 23.6807 81.7014 23.7721 81.0904 23.7721ZM85.3101 23.6522L86.4065 17.0737H88.6507L88.4451 18.3243H88.5136C88.7164 17.9131 89.0033 17.5876 89.3745 17.3478C89.7457 17.1079 90.1611 16.988 90.6208 16.988C91.0805 16.988 91.4574 17.1108 91.7515 17.3564C92.0456 17.599 92.194 17.9217 92.1969 18.3243H92.2654C92.4424 17.9217 92.7322 17.599 93.1348 17.3564C93.5374 17.1108 93.9843 16.988 94.4754 16.988C95.1007 16.988 95.5761 17.1907 95.9016 17.5962C96.2299 18.0016 96.337 18.5413 96.2228 19.2151L95.4861 23.6522H93.122L93.773 19.8147C93.813 19.5263 93.773 19.3008 93.6531 19.138C93.5331 18.9724 93.3504 18.8896 93.1049 18.8896C92.8622 18.8896 92.6566 18.9724 92.4881 19.138C92.3225 19.3008 92.2197 19.5263 92.1798 19.8147L91.5288 23.6522H89.2674L89.9184 19.8147C89.9584 19.5263 89.9184 19.3008 89.7985 19.138C89.6786 18.9724 89.4958 18.8896 89.2503 18.8896C89.0904 18.8896 88.9448 18.9267 88.8134 19.001C88.6849 19.0752 88.5779 19.1823 88.4922 19.3222C88.4094 19.4592 88.3537 19.6234 88.3252 19.8147L87.6742 23.6522H85.3101ZM97.4359 26.1191C97.1618 26.1191 96.9063 26.0977 96.6693 26.0548C96.4323 26.0149 96.2253 25.9592 96.0482 25.8878L96.8449 24.2089C97.0276 24.2774 97.1961 24.3217 97.3502 24.3417C97.5073 24.3617 97.6458 24.3503 97.7657 24.3074C97.8856 24.2646 97.9841 24.1832 98.0612 24.0633L98.1383 23.9434L96.9648 17.0737H99.346L99.6459 21.6306H99.7144L101.556 17.0737H104.126L100.545 24.2004C100.363 24.563 100.134 24.8885 99.86 25.1768C99.5887 25.4681 99.2547 25.6979 98.8578 25.8664C98.4609 26.0348 97.987 26.1191 97.4359 26.1191Z" stroke="#9F89F7" stroke-width="2" mask="url(#path-2-outside-1_279_1139)"/>
</g>
<defs>
<clipPath id="clip0_279_1139">
<rect width="120" height="41" fill="white"/>
</clipPath>
</defs>
</svg>
