<svg width="87" height="35" viewBox="0 0 87 35" fill="none" xmlns="http://www.w3.org/2000/svg">
<g clip-path="url(#clip0_279_1142)">
<path d="M11.8698 16.5127C12.9943 16.5127 13.869 14.8468 13.869 12.806C13.869 10.7652 12.9527 9.0993 11.8698 9.0993C10.7453 9.0993 9.87071 10.7652 9.87071 12.806C9.87071 14.8468 10.7869 16.5127 11.8698 16.5127ZM22.7401 16.5127C23.8646 16.5127 24.7392 14.8468 24.7392 12.806C24.7392 10.7652 23.823 9.0993 22.7401 9.0993C21.6156 9.0993 20.7409 10.7652 20.7409 12.806C20.6993 14.8468 21.6156 16.5127 22.7401 16.5127ZM38.1917 16.5127C39.3162 16.5127 40.1908 14.8468 40.1908 12.806C40.1908 10.7652 39.2745 9.0993 38.1917 9.0993C37.0672 9.0993 36.1925 10.7652 36.1925 12.806C36.1925 14.8468 37.1088 16.5127 38.1917 16.5127ZM49.0619 16.5127C50.1864 16.5127 51.061 14.8468 51.061 12.806C51.061 10.7652 50.1448 9.0993 49.0619 9.0993C47.9374 9.0993 47.0628 10.7652 47.0628 12.806C47.0211 14.8468 47.9374 16.5127 49.0619 16.5127ZM69.7195 26.8415C65.4714 26.8415 61.723 24.2593 60.182 20.4277C60.0571 20.0945 59.9322 19.8029 59.8489 19.4697C59.7239 19.0949 59.6406 18.7617 59.599 18.3869L59.474 18.4285L58.5994 18.5951C58.7243 19.3031 58.9326 19.9695 59.1825 20.6359C59.2658 20.8858 59.3907 21.1357 59.5157 21.3856C59.5989 21.5938 59.7239 21.8021 59.8489 22.0103C61.7647 25.5504 65.513 27.8411 69.7612 27.8411C75.2171 27.8411 79.8818 23.9678 80.8397 18.5951L79.8401 18.4285C78.9239 23.3014 74.6757 26.8415 69.7195 26.8415ZM64.5135 16.5127C65.638 16.5127 66.5126 14.8468 66.5126 12.806C66.5126 10.7652 65.5963 9.0993 64.5135 9.0993C63.389 9.0993 62.5144 10.7652 62.5144 12.806C62.5144 14.8468 63.4306 16.5127 64.5135 16.5127ZM75.3837 16.5127C76.5082 16.5127 77.3829 14.8468 77.3829 12.806C77.3829 10.7652 76.4666 9.0993 75.3837 9.0993C74.2592 9.0993 73.3846 10.7652 73.3846 12.806C73.343 14.8468 74.2592 16.5127 75.3837 16.5127ZM69.7195 0.186523C64.4302 0.186523 59.6823 2.60214 56.5586 6.39215C53.435 2.60214 48.6871 0.186523 43.3977 0.186523C38.1084 0.186523 33.3605 2.60214 30.2368 6.39215C27.1132 2.60214 22.3652 0.186523 17.0759 0.186523C7.66332 0.186523 0 7.84984 0 17.2624C0 26.6749 7.66332 34.3382 17.0759 34.3382C22.3652 34.3382 27.1132 31.9226 30.2368 28.1326C33.3605 31.9226 38.1084 34.3382 43.3977 34.3382C48.6871 34.3382 53.435 31.9226 56.5586 28.1326C59.6823 31.9226 64.4302 34.3382 69.7195 34.3382C79.1321 34.3382 86.7954 26.6749 86.7954 17.2624C86.7954 7.84984 79.1321 0.186523 69.7195 0.186523ZM17.0759 33.3803C8.20475 33.3803 0.957935 26.1335 0.957935 17.2624C0.957935 8.39127 8.20475 1.14444 17.0759 1.14444C22.157 1.14444 26.6551 3.47675 29.6121 7.14182C27.5297 9.97391 26.2802 13.4724 26.2802 17.2624C26.2802 18.3452 26.3635 19.3864 26.5717 20.386C25.0307 24.176 21.2824 26.7999 17.0342 26.7999C12.0364 26.7999 7.7883 23.2597 6.91368 18.3452L5.91411 18.5118C6.87203 23.8845 11.5366 27.7994 17.0342 27.7994C21.2407 27.7994 24.9891 25.4671 26.9466 21.9686C27.5297 23.9261 28.4043 25.7587 29.6121 27.3829C26.6551 31.048 22.157 33.3803 17.0759 33.3803ZM43.3977 33.3803C38.3166 33.3803 33.8186 31.048 30.8615 27.3829C30.7366 27.258 30.6533 27.1331 30.57 27.0081C30.445 26.8832 30.3618 26.7166 30.2785 26.5916C29.029 24.8424 28.1127 22.8016 27.6546 20.5942C27.5296 19.8862 27.4047 19.1782 27.3631 18.4702C27.3214 18.0953 27.3214 17.7205 27.3214 17.304C27.3214 13.8472 28.4043 10.6403 30.2785 8.01644C30.3618 7.89149 30.4867 7.7249 30.57 7.59995C30.6533 7.47501 30.7782 7.35007 30.8615 7.22512C33.8186 3.56006 38.3583 1.22773 43.3977 1.22773C48.4788 1.22773 52.9769 3.56006 55.9339 7.22512C53.8515 10.0572 52.602 13.5557 52.602 17.3457C52.602 18.4285 52.6853 19.4697 52.8935 20.4693C51.3525 24.301 47.6042 26.8832 43.3561 26.8832C39.1079 26.8832 35.3596 24.301 33.8186 20.4693C33.6936 20.1361 33.5687 19.8446 33.4854 19.5114C33.3604 19.1366 33.2771 18.8034 33.2355 18.4285L33.1105 18.4702L32.2359 18.6368C32.3609 19.3448 32.5691 20.0112 32.819 20.6775C32.9023 20.9274 33.0273 21.1773 33.1522 21.4272C33.2355 21.6355 33.3604 21.8437 33.4854 22.0519C35.4012 25.5921 39.1496 27.8827 43.3977 27.8827C47.6042 27.8827 51.3525 25.5504 53.31 22.0519C53.8931 24.0094 54.7677 25.8419 55.9755 27.4662C52.9768 31.048 48.4788 33.3803 43.3977 33.3803ZM69.7195 33.3803C64.6384 33.3803 60.1404 31.048 57.1833 27.3829C57.0584 27.258 56.9751 27.1331 56.8918 27.0081C56.7669 26.8832 56.6836 26.7166 56.6003 26.5916C55.3508 24.8424 54.4346 22.8016 53.9764 20.5942C53.8098 19.8862 53.7265 19.1782 53.6849 18.4702C53.6432 18.0953 53.6432 17.7205 53.6432 17.304C53.6432 13.8472 54.7261 10.6403 56.6003 8.01644C56.6836 7.89149 56.8085 7.7249 56.8918 7.59995C56.9751 7.47501 57.1 7.35007 57.1833 7.22512C60.1404 3.56006 64.6801 1.22773 69.7195 1.22773C78.5906 1.22773 85.8375 8.47457 85.8375 17.3457C85.8375 26.1751 78.5906 33.3803 69.7195 33.3803Z" fill="#9F89F7"/>
</g>
<defs>
<clipPath id="clip0_279_1142">
<rect width="87" height="35" fill="white"/>
</clipPath>
</defs>
</svg>
