<svg width="31" height="30" viewBox="0 0 31 30" fill="none" xmlns="http://www.w3.org/2000/svg">
<path fill-rule="evenodd" clip-rule="evenodd" d="M12.834 14.625V11.125C12.834 10.1585 13.6548 9.375 14.6673 9.375H18.334C19.3465 9.375 20.1673 10.1585 20.1673 11.125V14.625H23.834C24.8465 14.625 25.6673 15.4085 25.6673 16.375V19.875C25.6673 20.8415 24.8465 21.625 23.834 21.625H20.1673V25.125C20.1673 26.0915 19.3465 26.875 18.334 26.875H14.6673C13.6548 26.875 12.834 26.0915 12.834 25.125V21.625H9.16732C8.1548 21.625 7.33398 20.8415 7.33398 19.875V16.375C7.33398 15.4085 8.1548 14.625 9.16732 14.625H12.834ZM14.6673 11.125V15.5C14.6673 15.9832 14.2569 16.375 13.7507 16.375H9.16732V19.875H13.7507C14.2569 19.875 14.6673 20.2668 14.6673 20.75V25.125H18.334V20.75C18.334 20.2668 18.7444 19.875 19.2507 19.875H23.834V16.375H19.2507C18.7444 16.375 18.334 15.9832 18.334 15.5V11.125H14.6673Z" fill="#9F89F7"/>
<path fill-rule="evenodd" clip-rule="evenodd" d="M4.66602 6.7915V4.95817C4.66602 4.45191 5.07642 4.0415 5.58268 4.0415H7.41602C7.92228 4.0415 8.33268 4.45191 8.33268 4.95817V6.7915H10.166C10.6723 6.7915 11.0827 7.20191 11.0827 7.70817V9.5415C11.0827 10.0478 10.6723 10.4582 10.166 10.4582H8.33268V12.2915C8.33268 12.7978 7.92228 13.2082 7.41602 13.2082H5.58268C5.07642 13.2082 4.66602 12.7978 4.66602 12.2915V10.4582H2.83268C2.32642 10.4582 1.91602 10.0478 1.91602 9.5415V7.70817C1.91602 7.20191 2.32642 6.7915 2.83268 6.7915H4.66602ZM5.58268 4.95817V7.24984C5.58268 7.50297 5.37748 7.70817 5.12435 7.70817H2.83268V9.5415H5.12435C5.37748 9.5415 5.58268 9.74671 5.58268 9.99984V12.2915H7.41602V9.99984C7.41602 9.74671 7.62122 9.5415 7.87435 9.5415H10.166V7.70817H7.87435C7.62122 7.70817 7.41602 7.50297 7.41602 7.24984V4.95817H5.58268Z" fill="#9F89F7"/>
<g clip-path="url(#clip0_279_1135)">
<path fill-rule="evenodd" clip-rule="evenodd" d="M24.666 6.70801V5.37467C24.666 5.00648 24.9645 4.70801 25.3327 4.70801H26.666C27.0342 4.70801 27.3327 5.00648 27.3327 5.37467V6.70801H28.666C29.0342 6.70801 29.3327 7.00648 29.3327 7.37467V8.70801C29.3327 9.0762 29.0342 9.37467 28.666 9.37467H27.3327V10.708C27.3327 11.0762 27.0342 11.3747 26.666 11.3747H25.3327C24.9645 11.3747 24.666 11.0762 24.666 10.708V9.37467H23.3327C22.9645 9.37467 22.666 9.0762 22.666 8.70801V7.37467C22.666 7.00648 22.9645 6.70801 23.3327 6.70801H24.666ZM25.3327 5.37467V7.04134C25.3327 7.22544 25.1834 7.37467 24.9993 7.37467H23.3327V8.70801H24.9993C25.1834 8.70801 25.3327 8.85725 25.3327 9.04134V10.708H26.666V9.04134C26.666 8.85725 26.8153 8.70801 26.9993 8.70801H28.666V7.37467H26.9993C26.8153 7.37467 26.666 7.22544 26.666 7.04134V5.37467H25.3327Z" fill="#9F89F7"/>
</g>
<defs>
<clipPath id="clip0_279_1135">
<rect width="8" height="8" fill="white" transform="translate(22 4.0415)"/>
</clipPath>
</defs>
</svg>
