<svg width="12" height="9" viewBox="0 0 12 9" fill="none" xmlns="http://www.w3.org/2000/svg">
<path d="M3.86032 5.36055C3.86032 5.06188 3.92699 4.79788 4.06032 4.56855C4.19899 4.34455 4.38566 4.16855 4.62032 4.04055C4.85499 3.91255 5.11899 3.84855 5.41232 3.84855L8.20432 3.84855C8.34832 3.84855 8.47899 3.81388 8.59632 3.74455C8.71366 3.67521 8.80699 3.58188 8.87632 3.46455C8.94566 3.34721 8.98032 3.21921 8.98032 3.08055C8.98032 2.94188 8.94566 2.81388 8.87632 2.69655C8.80699 2.58455 8.71366 2.49388 8.59632 2.42455C8.47899 2.36055 8.34832 2.32855 8.20432 2.32855L0.749951 2.32855L0.749951 1.56055L8.10032 1.56055C8.39366 1.56055 8.65766 1.62455 8.89232 1.75255C9.12699 1.88055 9.31099 2.05921 9.44432 2.28855C9.58299 2.51788 9.65232 2.78188 9.65232 3.08055C9.65232 3.38455 9.58299 3.65121 9.44432 3.88055C9.31099 4.10988 9.12699 4.28855 8.89232 4.41655C8.65766 4.54455 8.39366 4.60855 8.10032 4.60855L5.30832 4.60855C5.16432 4.60855 5.03366 4.64321 4.91632 4.71255C4.79899 4.78188 4.70566 4.87255 4.63632 4.98455C4.56699 5.10188 4.53232 5.22721 4.53232 5.36055C4.53232 5.49388 4.56699 5.61655 4.63632 5.72855C4.70566 5.84055 4.79899 5.92855 4.91632 5.99255C5.03366 6.06188 5.16432 6.09655 5.30832 6.09655L7.30256 6.09655L7.30279 6.86455L5.41232 6.86455C5.11899 6.86455 4.85499 6.80055 4.62032 6.67255C4.38566 6.54455 4.19899 6.36855 4.06032 6.14455C3.92699 5.92055 3.86032 5.65921 3.86032 5.36055Z" fill="black"/>
<circle cx="9.5856" cy="6.46909" r="0.396824" transform="rotate(90 9.5856 6.46909)" stroke="black" stroke-width="4"/>
<circle cx="2.402" cy="1.95737" r="0.396824" transform="rotate(90 2.402 1.95737)" stroke="black" stroke-width="3"/>
</svg>
