<svg width="262" height="58" viewBox="0 0 262 58" fill="none" xmlns="http://www.w3.org/2000/svg">
<path d="M93.6705 20.0455L90.7727 37.5H86.0341L88.9318 20.0455H93.6705ZM99.0526 30.1364L97.8253 37.5H93.1207L95.3026 24.4091H99.7685L99.3594 26.8977H99.4957C99.9105 26.0625 100.516 25.4119 101.311 24.946C102.112 24.4744 102.996 24.2386 103.962 24.2386C104.888 24.2386 105.658 24.4489 106.271 24.8693C106.885 25.2898 107.32 25.8693 107.575 26.608C107.831 27.3466 107.876 28.1932 107.712 29.1477L106.314 37.5H101.609L102.837 30.1364C102.945 29.4886 102.865 28.9801 102.598 28.6108C102.337 28.2415 101.905 28.0568 101.303 28.0568C100.922 28.0568 100.572 28.142 100.254 28.3125C99.9418 28.4773 99.6804 28.7159 99.4702 29.0284C99.2656 29.3352 99.1264 29.7045 99.0526 30.1364ZM114.568 30.1364L113.341 37.5H108.636L110.818 24.4091H115.284L114.875 26.8977H115.011C115.426 26.0625 116.031 25.4119 116.827 24.946C117.628 24.4744 118.511 24.2386 119.477 24.2386C120.403 24.2386 121.173 24.4489 121.787 24.8693C122.401 25.2898 122.835 25.8693 123.091 26.608C123.347 27.3466 123.392 28.1932 123.227 29.1477L121.83 37.5H117.125L118.352 30.1364C118.46 29.4886 118.381 28.9801 118.114 28.6108C117.852 28.2415 117.42 28.0568 116.818 28.0568C116.438 28.0568 116.088 28.142 115.77 28.3125C115.457 28.4773 115.196 28.7159 114.986 29.0284C114.781 29.3352 114.642 29.7045 114.568 30.1364ZM130.357 37.7386C128.959 37.7386 127.8 37.4716 126.879 36.9375C125.959 36.3977 125.311 35.625 124.936 34.6193C124.561 33.608 124.493 32.3977 124.732 30.9886C124.959 29.6364 125.428 28.4545 126.138 27.4432C126.854 26.4318 127.754 25.6449 128.839 25.0824C129.93 24.5199 131.152 24.2386 132.504 24.2386C133.493 24.2386 134.359 24.392 135.104 24.6989C135.854 25.0057 136.464 25.4517 136.936 26.0369C137.408 26.6222 137.726 27.3295 137.891 28.1591C138.061 28.983 138.061 29.9148 137.891 30.9545L137.72 32.0455H126.027L126.436 29.4545H133.8C133.857 29.0795 133.82 28.75 133.689 28.4659C133.564 28.1761 133.362 27.9517 133.084 27.7926C132.811 27.6278 132.482 27.5455 132.095 27.5455C131.709 27.5455 131.345 27.6278 131.004 27.7926C130.669 27.9574 130.382 28.1875 130.143 28.483C129.911 28.7784 129.754 29.125 129.675 29.5227L129.163 32.25C129.095 32.6705 129.121 33.0455 129.24 33.375C129.359 33.7045 129.567 33.9631 129.862 34.1506C130.158 34.3381 130.538 34.4318 131.004 34.4318C131.322 34.4318 131.624 34.3892 131.908 34.304C132.197 34.2131 132.453 34.0824 132.675 33.9119C132.902 33.7358 133.084 33.5227 133.22 33.2727H137.516C137.209 34.1818 136.723 34.9716 136.058 35.642C135.399 36.3068 134.587 36.8239 133.621 37.1932C132.661 37.5568 131.572 37.7386 130.357 37.7386ZM138.719 37.5L140.901 24.4091H145.469L145.06 26.8977H145.197C145.589 25.9773 146.08 25.304 146.671 24.8778C147.262 24.4517 147.907 24.2386 148.606 24.2386C148.81 24.2386 149.006 24.2557 149.194 24.2898C149.387 24.3182 149.577 24.358 149.765 24.4091L149.083 28.4318C148.862 28.3466 148.586 28.2869 148.256 28.2528C147.927 28.2131 147.634 28.1932 147.379 28.1932C146.924 28.1932 146.498 28.2983 146.1 28.5085C145.708 28.7131 145.373 29.0028 145.094 29.3778C144.822 29.7472 144.64 30.1818 144.549 30.6818L143.424 37.5H138.719Z" fill="black"/>
<path d="M151.769 37.5H146.656L155.315 20.0455H161.792L164.656 37.5H159.542L157.838 24.8523H157.701L151.769 37.5ZM151.974 30.6136H161.588L160.974 34.1591H151.36L151.974 30.6136ZM171.646 37.7386C170.226 37.7386 169.056 37.4574 168.135 36.8949C167.215 36.3267 166.57 35.5369 166.2 34.5256C165.831 33.5085 165.76 32.3295 165.987 30.9886C166.203 29.6477 166.664 28.4716 167.368 27.4602C168.078 26.4432 168.987 25.6534 170.095 25.0909C171.209 24.5227 172.476 24.2386 173.896 24.2386C175.181 24.2386 176.252 24.4716 177.11 24.9375C177.973 25.3977 178.59 26.0511 178.959 26.8977C179.334 27.7386 179.431 28.7273 179.249 29.8636H174.885C174.936 29.1818 174.825 28.6591 174.553 28.2955C174.286 27.9318 173.896 27.75 173.385 27.75C172.965 27.75 172.578 27.8693 172.226 28.108C171.879 28.3409 171.581 28.696 171.331 29.1733C171.087 29.6449 170.908 30.2386 170.794 30.9545C170.681 31.6705 170.666 32.267 170.752 32.7443C170.843 33.2159 171.019 33.571 171.28 33.8097C171.547 34.0426 171.885 34.1591 172.294 34.1591C172.646 34.1591 172.97 34.0795 173.266 33.9205C173.567 33.7557 173.825 33.517 174.041 33.2045C174.263 32.8864 174.431 32.5 174.544 32.0455H178.908C178.692 33.2045 178.257 34.2102 177.604 35.0625C176.95 35.9148 176.118 36.5739 175.107 37.0398C174.095 37.5057 172.942 37.7386 171.646 37.7386ZM183.542 37.7045C182.713 37.7045 181.999 37.5682 181.403 37.2955C180.812 37.017 180.38 36.5966 180.107 36.0341C179.84 35.4659 179.781 34.75 179.928 33.8864C180.048 33.1705 180.272 32.5597 180.602 32.054C180.931 31.5483 181.34 31.1335 181.829 30.8097C182.318 30.4858 182.866 30.2386 183.474 30.0682C184.088 29.892 184.735 29.7784 185.417 29.7273C186.156 29.6705 186.755 29.5994 187.215 29.5142C187.676 29.429 188.019 29.3125 188.247 29.1648C188.474 29.017 188.61 28.8182 188.656 28.5682V28.5341C188.707 28.1932 188.616 27.9318 188.383 27.75C188.156 27.5682 187.838 27.4773 187.428 27.4773C186.985 27.4773 186.602 27.5739 186.278 27.767C185.96 27.9602 185.741 28.2614 185.622 28.6705H181.292C181.474 27.875 181.846 27.142 182.409 26.4716C182.977 25.7955 183.73 25.2557 184.667 24.8523C185.61 24.4432 186.735 24.2386 188.042 24.2386C188.974 24.2386 189.792 24.3494 190.497 24.571C191.201 24.7869 191.784 25.0909 192.244 25.483C192.71 25.8693 193.036 26.3239 193.224 26.8466C193.417 27.3636 193.463 27.9261 193.36 28.5341L191.86 37.5H187.463L187.769 35.6591H187.667C187.326 36.1477 186.943 36.5426 186.517 36.8438C186.096 37.1449 185.636 37.3636 185.136 37.5C184.642 37.6364 184.11 37.7045 183.542 37.7045ZM185.588 34.7386C185.94 34.7386 186.286 34.6648 186.627 34.517C186.968 34.3693 187.261 34.1562 187.505 33.8778C187.749 33.5994 187.906 33.2614 187.974 32.8636L188.144 31.7727C188.019 31.8239 187.88 31.8722 187.727 31.9176C187.579 31.9574 187.423 31.9972 187.258 32.0369C187.099 32.0767 186.928 32.1136 186.747 32.1477C186.57 32.1818 186.389 32.2159 186.201 32.25C185.826 32.3068 185.511 32.4006 185.255 32.5312C184.999 32.6562 184.801 32.8125 184.659 33C184.517 33.1818 184.428 33.3864 184.394 33.6136C184.343 33.9716 184.426 34.25 184.642 34.4489C184.863 34.642 185.178 34.7386 185.588 34.7386ZM198.83 37.6705C197.898 37.6705 197.08 37.4261 196.375 36.9375C195.676 36.4489 195.173 35.7074 194.867 34.7131C194.566 33.7187 194.54 32.4659 194.79 30.9545C195.051 29.375 195.509 28.0909 196.162 27.1023C196.821 26.1136 197.577 25.3892 198.429 24.929C199.287 24.4688 200.148 24.2386 201.012 24.2386C201.659 24.2386 202.208 24.3523 202.656 24.5795C203.111 24.8011 203.472 25.0994 203.739 25.4744C204.006 25.8437 204.188 26.25 204.284 26.6932H204.352L205.46 20.0455H210.165L207.267 37.5H202.597L202.955 35.3523H202.852C202.597 35.7955 202.27 36.1932 201.872 36.5455C201.48 36.892 201.029 37.1676 200.517 37.3722C200.006 37.571 199.443 37.6705 198.83 37.6705ZM201.165 34.0568C201.597 34.0568 201.989 33.9318 202.341 33.6818C202.693 33.4261 202.992 33.0682 203.236 32.608C203.48 32.142 203.654 31.5909 203.756 30.9545C203.864 30.3068 203.872 29.7528 203.781 29.2926C203.691 28.8267 203.509 28.4716 203.236 28.2273C202.969 27.9773 202.619 27.8523 202.188 27.8523C201.756 27.8523 201.367 27.9773 201.02 28.2273C200.673 28.4716 200.381 28.8267 200.142 29.2926C199.909 29.7528 199.739 30.3068 199.631 30.9545C199.523 31.6023 199.509 32.1591 199.588 32.625C199.673 33.0852 199.85 33.4403 200.117 33.6903C200.384 33.9347 200.733 34.0568 201.165 34.0568ZM215.816 37.7386C214.418 37.7386 213.259 37.4716 212.338 36.9375C211.418 36.3977 210.77 35.625 210.395 34.6193C210.02 33.608 209.952 32.3977 210.191 30.9886C210.418 29.6364 210.887 28.4545 211.597 27.4432C212.313 26.4318 213.213 25.6449 214.298 25.0824C215.389 24.5199 216.611 24.2386 217.963 24.2386C218.952 24.2386 219.818 24.392 220.563 24.6989C221.313 25.0057 221.923 25.4517 222.395 26.0369C222.867 26.6222 223.185 27.3295 223.35 28.1591C223.52 28.983 223.52 29.9148 223.35 30.9545L223.179 32.0455H211.486L211.895 29.4545H219.259C219.316 29.0795 219.279 28.75 219.148 28.4659C219.023 28.1761 218.821 27.9517 218.543 27.7926C218.27 27.6278 217.941 27.5455 217.554 27.5455C217.168 27.5455 216.804 27.6278 216.463 27.7926C216.128 27.9574 215.841 28.1875 215.602 28.483C215.369 28.7784 215.213 29.125 215.134 29.5227L214.622 32.25C214.554 32.6705 214.58 33.0455 214.699 33.375C214.818 33.7045 215.026 33.9631 215.321 34.1506C215.617 34.3381 215.997 34.4318 216.463 34.4318C216.781 34.4318 217.083 34.3892 217.367 34.304C217.656 34.2131 217.912 34.0824 218.134 33.9119C218.361 33.7358 218.543 33.5227 218.679 33.2727H222.975C222.668 34.1818 222.182 34.9716 221.517 35.642C220.858 36.3068 220.046 36.8239 219.08 37.1932C218.119 37.5568 217.031 37.7386 215.816 37.7386ZM224.213 37.5L226.394 24.4091H230.86L230.451 26.8977H230.588C230.991 26.0795 231.562 25.4318 232.301 24.9545C233.039 24.4773 233.866 24.2386 234.781 24.2386C235.695 24.2386 236.445 24.483 237.031 24.9716C237.616 25.4545 237.911 26.0966 237.917 26.8977H238.053C238.406 26.0966 238.982 25.4545 239.784 24.9716C240.585 24.483 241.474 24.2386 242.451 24.2386C243.695 24.2386 244.642 24.642 245.289 25.4489C245.943 26.2557 246.156 27.3295 245.928 28.6705L244.463 37.5H239.758L241.053 29.8636C241.133 29.2898 241.053 28.8409 240.815 28.517C240.576 28.1875 240.213 28.0227 239.724 28.0227C239.241 28.0227 238.832 28.1875 238.497 28.517C238.167 28.8409 237.963 29.2898 237.883 29.8636L236.588 37.5H232.088L233.383 29.8636C233.463 29.2898 233.383 28.8409 233.144 28.517C232.906 28.1875 232.542 28.0227 232.053 28.0227C231.735 28.0227 231.445 28.0966 231.184 28.2443C230.928 28.392 230.715 28.6051 230.545 28.8835C230.38 29.1562 230.269 29.483 230.213 29.8636L228.917 37.5H224.213ZM248.343 42.4091C247.797 42.4091 247.289 42.3665 246.817 42.2812C246.345 42.2017 245.933 42.0909 245.581 41.9489L247.166 38.608C247.53 38.7443 247.865 38.8324 248.172 38.8722C248.485 38.9119 248.76 38.8892 248.999 38.804C249.237 38.7188 249.433 38.5568 249.587 38.3182L249.74 38.0795L247.405 24.4091H252.144L252.74 33.4773H252.877L256.541 24.4091H261.655L254.53 38.5909C254.166 39.3125 253.712 39.9602 253.166 40.5341C252.627 41.1136 251.962 41.571 251.172 41.9062C250.382 42.2415 249.439 42.4091 248.343 42.4091Z" fill="black"/>
<path d="M24.8768 34.5441C24.8768 32.6193 25.3064 30.918 26.1657 29.4401C27.0593 27.9965 28.2622 26.8623 29.7745 26.0374C31.2868 25.2125 32.9882 24.8001 34.8785 24.8001L52.8714 24.8001C53.7994 24.8001 54.6415 24.5767 55.3977 24.1298C56.1538 23.683 56.7553 23.0815 57.2021 22.3254C57.6489 21.5693 57.8723 20.7444 57.8723 19.8507C57.8723 18.9571 57.6489 18.1322 57.2021 17.3761C56.7553 16.6543 56.1538 16.07 55.3977 15.6232C54.6415 15.2107 53.7994 15.0045 52.8714 15.0045L4.83215 15.0045L4.83215 10.0552L52.2012 10.0552C54.0916 10.0552 55.7929 10.4676 57.3052 11.2925C58.8175 12.1174 60.0033 13.2688 60.8625 14.7467C61.7562 16.2247 62.203 17.926 62.203 19.8507C62.203 21.8098 61.7562 23.5284 60.8625 25.0063C60.0033 26.4842 58.8175 27.6356 57.3052 28.4605C55.7929 29.2854 54.0916 29.6978 52.2012 29.6978L34.2083 29.6978C33.2803 29.6978 32.4382 29.9212 31.6821 30.3681C30.9259 30.8149 30.3245 31.3992 29.8776 32.121C29.4308 32.8771 29.2074 33.6848 29.2074 34.5441C29.2074 35.4033 29.4308 36.1938 29.8776 36.9156C30.3245 37.6374 30.9259 38.2045 31.6821 38.617C32.4382 39.0638 33.2803 39.2872 34.2083 39.2872L47.0601 39.2872L47.0616 44.2365L34.8785 44.2365C32.9882 44.2365 31.2868 43.8241 29.7745 42.9992C28.2622 42.1743 27.0593 41.0401 26.1657 39.5965C25.3064 38.153 24.8768 36.4688 24.8768 34.5441Z" fill="black"/>
<circle cx="61.7728" cy="41.6887" r="2.55731" transform="rotate(90 61.7728 41.6887)" stroke="black" stroke-width="25.7778"/>
<circle cx="15.4778" cy="12.6125" r="2.55731" transform="rotate(90 15.4778 12.6125)" stroke="black" stroke-width="19.3333"/>
</svg>
